<?xml version="1.0" encoding="UTF-8" standalone="no"?>
<!-- Created with Inkscape (http://www.inkscape.org/) -->

<svg
   xmlns:dc="http://purl.org/dc/elements/1.1/"
   xmlns:cc="http://creativecommons.org/ns#"
   xmlns:rdf="http://www.w3.org/1999/02/22-rdf-syntax-ns#"
   xmlns:svg="http://www.w3.org/2000/svg"
   xmlns="http://www.w3.org/2000/svg"
   xmlns:sodipodi="http://sodipodi.sourceforge.net/DTD/sodipodi-0.dtd"
   xmlns:inkscape="http://www.inkscape.org/namespaces/inkscape"
   width="210mm"
   height="70mm"
   viewBox="0 0 210 70"
   version="1.1"
   id="svg8"
   inkscape:version="0.92.4 (5da689c313, 2019-01-14)"
   sodipodi:docname="logo.svg">
  <defs
     id="defs2" />
  <sodipodi:namedview
     id="base"
     pagecolor="#ffffff"
     bordercolor="#666666"
     borderopacity="1.0"
     inkscape:pageopacity="0.0"
     inkscape:pageshadow="2"
     inkscape:zoom="0.90147321"
     inkscape:cx="412.59792"
     inkscape:cy="123.68643"
     inkscape:document-units="mm"
     inkscape:current-layer="layer1"
     showgrid="false"
     inkscape:window-width="1920"
     inkscape:window-height="1001"
     inkscape:window-x="-9"
     inkscape:window-y="-9"
     inkscape:window-maximized="1" />
  <metadata
     id="metadata5">
    <rdf:RDF>
      <cc:Work
         rdf:about="">
        <dc:format>image/svg+xml</dc:format>
        <dc:type
           rdf:resource="http://purl.org/dc/dcmitype/StillImage" />
        <dc:title></dc:title>
      </cc:Work>
    </rdf:RDF>
  </metadata>
  <g
     inkscape:label="Layer 1"
     inkscape:groupmode="layer"
     id="layer1"
     transform="translate(0,-227)">
    <path
       style="font-style:normal;font-variant:normal;font-weight:bold;font-stretch:semi-expanded;font-size:40.00018692px;line-height:1.25;font-family:Magneto;-inkscape-font-specification:'Magneto, Bold Semi-Expanded';font-variant-ligatures:normal;font-variant-caps:normal;font-variant-numeric:normal;font-feature-settings:normal;text-align:start;letter-spacing:0px;word-spacing:0px;writing-mode:lr-tb;text-anchor:start;fill:#000000;fill-opacity:1;stroke:none;stroke-width:0.85571367"
       inkscape:connector-curvature="0"
       id="path4526"
       d="m 33.344221,253.38367 q 0,2.34451 -2.71468,4.38598 -1.628803,1.22807 -4.956477,2.71134 1.348579,2.12121 1.348579,3.84371 0,3.55664 -5.044042,5.26318 -3.607897,1.21213 -8.40675,1.21213 H 4.4635512 L 10.78612,254.4363 h 6.305056 l -5.376812,13.81187 h 0.893218 q 3.064963,0 5.184162,-0.63797 3.135015,-0.97289 3.135015,-3.17385 0,-0.70176 -0.700568,-1.67465 -0.700559,-0.98885 -0.700559,-1.43541 0,-0.22329 0.03506,-0.31899 0.350284,-0.70175 1.909035,-1.37162 2.154224,-0.94098 3.152528,-1.73844 1.68135,-1.32377 1.68135,-3.06221 0,-2.45616 -4.115807,-2.45616 H 1.6963238 l 2.6971671,-4.01915 H 24.832393 q 4.028233,0 6.042345,0.98884 2.469483,1.21212 2.469483,4.03511 z" />
    <path
       style="font-style:normal;font-variant:normal;font-weight:bold;font-stretch:semi-expanded;font-size:40.00018692px;line-height:1.25;font-family:Magneto;-inkscape-font-specification:'Magneto, Bold Semi-Expanded';font-variant-ligatures:normal;font-variant-caps:normal;font-variant-numeric:normal;font-feature-settings:normal;text-align:start;letter-spacing:0px;word-spacing:0px;writing-mode:lr-tb;text-anchor:start;fill:#000000;fill-opacity:1;stroke:none;stroke-width:0.85571367"
       inkscape:connector-curvature="0"
       id="path4528"
       d="m 44.465642,268.24817 q -0.437848,1.40351 -2.014121,2.07337 -1.103382,0.47847 -2.364396,0.47847 h -6.742904 q -2.592081,0 -2.592081,-1.61085 0,-0.41468 0.19265,-0.94099 l 6.497715,-16.68269 h 6.199979 l -6.532741,16.68269 z" />
    <path
       style="font-style:normal;font-variant:normal;font-weight:bold;font-stretch:semi-expanded;font-size:40.00018692px;line-height:1.25;font-family:Magneto;-inkscape-font-specification:'Magneto, Bold Semi-Expanded';font-variant-ligatures:normal;font-variant-caps:normal;font-variant-numeric:normal;font-feature-settings:normal;text-align:start;letter-spacing:0px;word-spacing:0px;writing-mode:lr-tb;text-anchor:start;fill:#000000;fill-opacity:1;stroke:none;stroke-width:0.85571367"
       inkscape:connector-curvature="0"
       id="path4530"
       d="m 66.988708,268.24817 q -0.840671,2.55184 -4.290944,2.55184 h -6.637818 q -2.837279,0 -2.837279,-1.6587 -1.909035,1.97768 -4.693766,1.97768 -2.049147,0 -3.327675,-1.14833 -1.278518,-1.14833 -1.278518,-2.99842 0,-3.33335 2.802244,-5.26318 2.539533,-1.75439 6.287543,-1.75439 h 10.000527 l -3.29264,8.2935 z M 55.692149,262.50652 H 51.82154 l -1.22598,3.71612 q -0.105086,0.35088 -0.105086,0.63796 0,1.38757 2.977391,1.38757 z" />
    <path
       style="font-style:normal;font-variant:normal;font-weight:bold;font-stretch:semi-expanded;font-size:40.00018692px;line-height:1.25;font-family:Magneto;-inkscape-font-specification:'Magneto, Bold Semi-Expanded';font-variant-ligatures:normal;font-variant-caps:normal;font-variant-numeric:normal;font-feature-settings:normal;text-align:start;letter-spacing:0px;word-spacing:0px;writing-mode:lr-tb;text-anchor:start;fill:#000000;fill-opacity:1;stroke:none;stroke-width:0.85571367"
       inkscape:connector-curvature="0"
       id="path4532"
       d="m 88.898788,268.24817 q -0.38531,1.24402 -1.61129,1.92983 -1.120894,0.62201 -2.609593,0.62201 H 74.134443 q -3.012416,0 -5.061554,-0.92504 -2.592081,-1.16428 -2.592081,-3.50879 0,-0.25518 0.03506,-0.52632 0.350284,-2.85487 3.257614,-4.46573 2.557055,-1.41946 6.042345,-1.41946 h 4.413543 q 1.488691,0 2.539533,0.86124 1.050852,0.86126 1.050852,2.10528 0,1.25997 -1.068364,2.13717 -1.050843,0.87719 -2.522021,0.87719 -1.488691,0 -2.539534,-0.87719 -1.033329,-0.89314 -1.015817,-2.16907 0,0 0,-0.38277 h -2.119196 l -1.366101,3.52473 q -0.175137,0.44657 -0.175137,0.8134 0,1.40352 2.434447,1.40352 z" />
    <path
       style="font-style:normal;font-variant:normal;font-weight:bold;font-stretch:semi-expanded;font-size:40.00018692px;line-height:1.25;font-family:Magneto;-inkscape-font-specification:'Magneto, Bold Semi-Expanded';font-variant-ligatures:normal;font-variant-caps:normal;font-variant-numeric:normal;font-feature-settings:normal;text-align:start;letter-spacing:0px;word-spacing:0px;writing-mode:lr-tb;text-anchor:start;fill:#000000;fill-opacity:1;stroke:none;stroke-width:0.85571367"
       inkscape:connector-curvature="0"
       id="path4534"
       d="m 112.66536,268.24817 q -0.43786,1.40351 -2.01412,2.07337 -1.10338,0.47847 -2.3644,0.47847 h -6.88302 q -2.399415,0 -2.399415,-1.6906 0,-0.52631 0.2452,-1.14833 l 1.803945,-4.44978 q -0.80565,0.76555 -6.427666,5.32698 -1.383605,1.14833 -2.101685,1.49921 -0.945757,0.46252 -2.276823,0.46252 h -2.609594 l 7.460985,-19.23453 h 6.305053 l -4.658729,11.91393 6.988099,-6.33178 h 4.02823 l -4.06326,3.82778 h 1.33107 q 2.43446,0 2.43446,1.70654 0,0.54227 -0.28023,1.25998 l -1.71638,4.30624 z" />
    <path
       style="font-style:normal;font-variant:normal;font-weight:bold;font-stretch:semi-expanded;font-size:40.00018692px;line-height:1.25;font-family:Magneto;-inkscape-font-specification:'Magneto, Bold Semi-Expanded';font-variant-ligatures:normal;font-variant-caps:normal;font-variant-numeric:normal;font-feature-settings:normal;text-align:start;letter-spacing:0px;word-spacing:0px;writing-mode:lr-tb;text-anchor:start;fill:#ff0000;fill-opacity:1;stroke:none;stroke-width:0.85571367"
       inkscape:connector-curvature="0"
       id="path4536"
       d="m 139.84716,248.35972 -6.05986,15.7417 q -2.22428,5.7895 -6.83048,8.93146 -3.90563,2.66348 -8.12652,2.66348 -2.6096,0 -4.27342,-1.06858 -1.71638,-1.10049 -1.71638,-2.91867 0,-1.57896 1.36609,-2.69539 1.3661,-1.11643 3.29264,-1.11643 1.94406,0 3.31016,1.11643 1.36609,1.11643 1.36609,2.69539 0,0.27113 -0.07,0.6539 1.68134,-0.6539 2.94236,-2.72727 0.70056,-1.14834 1.68135,-3.66828 l 5.27172,-13.58859 h -10.08809 q -2.25931,0 -4.06326,1.19618 -1.96157,1.30782 -1.96157,3.2855 0,1.37162 1.01582,1.56301 0.33276,-1.48326 1.71637,-2.37641 1.29604,-0.86125 2.97739,-0.86125 1.82146,0 3.15253,1.02075 1.43615,1.08453 1.43615,2.80702 0,1.91389 -1.71637,2.98247 -1.47119,0.92505 -3.66044,0.92505 -3.38021,0 -5.62201,-1.43542 -2.48699,-1.61085 -2.48699,-4.43383 0,-4.22649 3.67794,-6.6029 3.24011,-2.08932 8.05646,-2.08932 z" />
    <path
       style="font-style:normal;font-variant:normal;font-weight:bold;font-stretch:semi-expanded;font-size:40.00018692px;line-height:1.25;font-family:Magneto;-inkscape-font-specification:'Magneto, Bold Semi-Expanded';font-variant-ligatures:normal;font-variant-caps:normal;font-variant-numeric:normal;font-feature-settings:normal;text-align:start;letter-spacing:0px;word-spacing:0px;writing-mode:lr-tb;text-anchor:start;fill:#ff0000;fill-opacity:1;stroke:none;stroke-width:0.85571367"
       inkscape:connector-curvature="0"
       id="path4538"
       d="m 161.14425,268.24817 q -0.84068,2.55184 -4.29094,2.55184 h -6.63783 q -2.83728,0 -2.83728,-1.6587 -1.90902,1.97768 -4.69376,1.97768 -2.04914,0 -3.32767,-1.14833 -1.27852,-1.14833 -1.27852,-2.99842 0,-3.33335 2.80225,-5.26318 2.53953,-1.75439 6.28754,-1.75439 h 10.00052 l -3.29264,8.2935 z m -11.29656,-5.74165 h -3.8706 l -1.22599,3.71612 q -0.10509,0.35088 -0.10509,0.63796 0,1.38757 2.97739,1.38757 z" />
    <path
       style="font-style:normal;font-variant:normal;font-weight:bold;font-stretch:semi-expanded;font-size:40.00018692px;line-height:1.25;font-family:Magneto;-inkscape-font-specification:'Magneto, Bold Semi-Expanded';font-variant-ligatures:normal;font-variant-caps:normal;font-variant-numeric:normal;font-feature-settings:normal;text-align:start;letter-spacing:0px;word-spacing:0px;writing-mode:lr-tb;text-anchor:start;fill:#ff0000;fill-opacity:1;stroke:none;stroke-width:0.85571367"
       inkscape:connector-curvature="0"
       id="path4540"
       d="m 183.05433,268.24817 q -0.38531,1.24402 -1.6113,1.92983 -1.1209,0.62201 -2.6096,0.62201 h -10.54346 q -3.01241,0 -5.06155,-0.92504 -2.59208,-1.16428 -2.59208,-3.50879 0,-0.25518 0.0351,-0.52632 0.35028,-2.85487 3.25761,-4.46573 2.55706,-1.41946 6.04235,-1.41946 h 4.41354 q 1.4887,0 2.53954,0.86124 1.05085,0.86126 1.05085,2.10528 0,1.25997 -1.06837,2.13717 -1.05084,0.87719 -2.52202,0.87719 -1.48869,0 -2.53953,-0.87719 -1.03333,-0.89314 -1.01582,-2.16907 0,0 0,-0.38277 h -2.1192 l -1.3661,3.52473 q -0.17514,0.44657 -0.17514,0.8134 0,1.40352 2.43445,1.40352 z" />
    <path
       style="font-style:normal;font-variant:normal;font-weight:bold;font-stretch:semi-expanded;font-size:40.00018692px;line-height:1.25;font-family:Magneto;-inkscape-font-specification:'Magneto, Bold Semi-Expanded';font-variant-ligatures:normal;font-variant-caps:normal;font-variant-numeric:normal;font-feature-settings:normal;text-align:start;letter-spacing:0px;word-spacing:0px;writing-mode:lr-tb;text-anchor:start;fill:#ff0000;fill-opacity:1;stroke:none;stroke-width:0.85571367"
       inkscape:connector-curvature="0"
       id="path4542"
       d="m 206.82089,268.24817 q -0.43784,1.40351 -2.01411,2.07337 -1.10338,0.47847 -2.36439,0.47847 h -6.88303 q -2.39942,0 -2.39942,-1.6906 0,-0.52631 0.2452,-1.14833 l 1.80395,-4.44978 q -0.80566,0.76555 -6.42767,5.32698 -1.3836,1.14833 -2.10168,1.49921 -0.94576,0.46252 -2.27683,0.46252 h -2.60959 l 7.46098,-19.23453 h 6.30506 l -4.65873,11.91393 6.9881,-6.33178 h 4.02823 l -4.06325,3.82778 h 1.33106 q 2.43446,0 2.43446,1.70654 0,0.54227 -0.28023,1.25998 l -1.71638,4.30624 z" />
  </g>
</svg>
